<svg id="Laag_1" data-name="Laag 1" xmlns="http://www.w3.org/2000/svg" viewBox="0 0 281.37 144.07"><defs><style>.cls-1{fill:#fff;}</style></defs><title>howest-logo</title><path class="cls-1" d="M33.5,91.82a.73.73,0,1,1,1.46,0v4.69c0,1.51.67,2.31,2,2.31s2-.8,2-2.31V91.82a.73.73,0,1,1,1.46,0v4.74a3.23,3.23,0,0,1-3.5,3.52,3.23,3.23,0,0,1-3.51-3.52Z"/><path class="cls-1" d="M42.77,91.82a.73.73,0,1,1,1.46,0v.35l0,0a3.1,3.1,0,0,1,5.51,2.2v4.9a.73.73,0,1,1-1.46,0V94.48a2,2,0,1,0-4.09,0V99.3a.73.73,0,1,1-1.46,0Z"/><path class="cls-1" d="M52.77,88.05a.9.9,0,1,1-.9.9A.9.9,0,0,1,52.77,88.05ZM53.5,99.3a.73.73,0,1,1-1.46,0V91.82a.73.73,0,1,1,1.46,0Z"/><path class="cls-1" d="M55,92.32a1.68,1.68,0,0,1-.15-.6.65.65,0,0,1,.66-.68.71.71,0,0,1,.77.57l2,6.11h0l2-6.11a.72.72,0,0,1,.77-.57.65.65,0,0,1,.66.68,1.68,1.68,0,0,1-.15.6L59.1,99.45c-.15.43-.3.63-.76.63s-.62-.2-.77-.63Z"/><path class="cls-1" d="M64.1,96.13a2.51,2.51,0,0,0,2.61,2.69c1.94,0,2.44-1.2,3-1.2a.58.58,0,0,1,.53.65c0,.71-1.81,1.81-3.54,1.81-2.82,0-4-2.18-4-4.52s1.49-4.52,4-4.52,3.8,2.18,3.8,4.31c0,.51-.18.78-.81.78ZM69,95a2.49,2.49,0,0,0-2.34-2.73c-1.81-.06-2.46,1.38-2.51,2.73Z"/><path class="cls-1" d="M72.14,91.82a.73.73,0,1,1,1.46,0v.75h0a2.65,2.65,0,0,1,2-1.53.74.74,0,0,1,.81.75c0,.41-.3.68-.91.8A2.3,2.3,0,0,0,73.6,95.1v4.2a.73.73,0,1,1-1.46,0Z"/><path class="cls-1" d="M80.51,91c1.21,0,2.94.65,2.94,1.56a.59.59,0,0,1-.66.6c-.63,0-.88-.9-2.28-.9-.83,0-1.54.37-1.54,1.12,0,1.54,4.71,1.38,4.71,3.94,0,1.84-1.57,2.72-3.22,2.72-1.86,0-3.32-.93-3.32-1.68a.62.62,0,0,1,.6-.66c.64,0,1.18,1.08,2.77,1.08,1.06,0,1.71-.6,1.71-1.2,0-1.73-4.72-1.63-4.72-4.09C77.5,91.91,79,91,80.51,91Z"/><path class="cls-1" d="M86.14,88.05a.9.9,0,1,1-.9.9A.9.9,0,0,1,86.14,88.05Zm.73,11.25a.73.73,0,1,1-1.46,0V91.82a.73.73,0,1,1,1.46,0Z"/><path class="cls-1" d="M89.6,89.23a.73.73,0,1,1,1.46,0v1.91h.6c.48,0,.73.23.73.63s-.25.63-.73.63h-.6v6.9a.73.73,0,1,1-1.46,0V92.4H89c-.48,0-.73-.23-.73-.63s.25-.63.73-.63h.6Z"/><path class="cls-1" d="M93.3,92.47a2.82,2.82,0,0,1-.2-.81.65.65,0,0,1,.67-.62.75.75,0,0,1,.73.55l2,6.06h0l2-6.06a.71.71,0,0,1,.7-.55.64.64,0,0,1,.66.62,2.49,2.49,0,0,1-.2.81L96,103a.75.75,0,0,1-.72.55.64.64,0,0,1-.66-.62,2.35,2.35,0,0,1,.21-.81l.93-2.48Z"/><path class="cls-1" d="M109.48,91c2.49,0,3.89,2.18,3.89,4.52s-1.4,4.52-3.89,4.52-3.89-2.18-3.89-4.52S107,91,109.48,91Zm0,7.78c1.8,0,2.43-1.76,2.43-3.26s-.63-3.26-2.43-3.26-2.42,1.77-2.42,3.26S107.69,98.82,109.48,98.82Z"/><path class="cls-1" d="M117.17,99.3a.73.73,0,1,1-1.46,0V92.4h-.6c-.48,0-.73-.23-.73-.63s.25-.63.73-.63h.6V89.06a1.81,1.81,0,0,1,1.94-1.91h.45c.38,0,.83.24.83.64s-.25.63-.8.63h-.36c-.45,0-.6.21-.6.58v2.14h.92c.48,0,.73.23.73.63s-.25.63-.73.63h-.92Z"/><path class="cls-1" d="M131.67,99.37a.68.68,0,1,1-1.36,0v-.62h0a2.85,2.85,0,0,1-2.41,1.33c-2.49,0-3.89-2.18-3.89-4.52s1.4-4.52,3.89-4.52a3.08,3.08,0,0,1,2.41,1.18h0v-.46a.68.68,0,1,1,1.36,0Zm-3.8-.55c1.79,0,2.43-1.76,2.43-3.26s-.64-3.26-2.43-3.26-2.43,1.77-2.43,3.26S126.07,98.82,127.87,98.82Z"/><path class="cls-1" d="M134,91.82a.73.73,0,1,1,1.46,0v.43h0A2.43,2.43,0,0,1,137.85,91c2.39,0,3.77,2.18,3.77,4.52s-1.38,4.52-3.77,4.52a2.9,2.9,0,0,1-2.36-1.2h0v3.91a.73.73,0,1,1-1.46,0Zm3.74,7c1.79,0,2.42-1.76,2.42-3.26s-.63-3.26-2.42-3.26-2.43,1.77-2.43,3.26S135.94,98.82,137.74,98.82Z"/><path class="cls-1" d="M143.57,91.82a.73.73,0,1,1,1.46,0v.43h0A2.43,2.43,0,0,1,147.42,91c2.39,0,3.77,2.18,3.77,4.52s-1.38,4.52-3.77,4.52a2.89,2.89,0,0,1-2.36-1.2h0v3.91a.73.73,0,1,1-1.46,0Zm3.73,7c1.8,0,2.43-1.76,2.43-3.26s-.63-3.26-2.43-3.26-2.42,1.77-2.42,3.26S145.51,98.82,147.3,98.82Z"/><path class="cls-1" d="M154.53,99.3a.73.73,0,1,1-1.46,0V87.94a.73.73,0,1,1,1.46,0Z"/><path class="cls-1" d="M157.52,88.05a.9.9,0,1,1-.9.9A.9.9,0,0,1,157.52,88.05Zm.73,11.25a.73.73,0,1,1-1.46,0V91.82a.73.73,0,1,1,1.46,0Z"/><path class="cls-1" d="M161.44,96.13a2.51,2.51,0,0,0,2.61,2.69c1.94,0,2.44-1.2,3-1.2a.58.58,0,0,1,.53.65c0,.71-1.81,1.81-3.54,1.81-2.82,0-4.05-2.18-4.05-4.52S161.47,91,164,91s3.8,2.18,3.8,4.31c0,.51-.18.78-.81.78Zm4.85-1.1A2.49,2.49,0,0,0,164,92.3c-1.81-.06-2.46,1.38-2.51,2.73Z"/><path class="cls-1" d="M175.26,98.87h0a2.43,2.43,0,0,1-2.36,1.21c-2.39,0-3.77-2.18-3.77-4.52S170.48,91,172.87,91a2.89,2.89,0,0,1,2.36,1.2h0v-4.3a.73.73,0,1,1,1.46,0V99.3a.73.73,0,1,1-1.46,0ZM173,92.3c-1.79,0-2.42,1.77-2.42,3.26s.63,3.26,2.42,3.26,2.43-1.76,2.43-3.26S174.78,92.3,173,92.3Z"/><path class="cls-1" d="M186.34,91c1.21,0,2.94.65,2.94,1.56a.59.59,0,0,1-.66.6c-.63,0-.88-.9-2.28-.9-.83,0-1.54.37-1.54,1.12,0,1.54,4.71,1.38,4.71,3.94,0,1.84-1.57,2.72-3.22,2.72-1.86,0-3.32-.93-3.32-1.68a.62.62,0,0,1,.6-.66c.64,0,1.18,1.08,2.77,1.08,1.06,0,1.71-.6,1.71-1.2,0-1.73-4.72-1.63-4.72-4.09C183.33,91.91,184.86,91,186.34,91Z"/><path class="cls-1" d="M194.85,91c1.49,0,2.37.52,2.37,1.12a.62.62,0,0,1-.6.61c-.56,0-.78-.47-1.77-.47-1.82,0-2.53,1.77-2.53,3.26s.71,3.26,2.53,3.26c1,0,1.29-.5,1.76-.5a.55.55,0,0,1,.56.61c0,.55-.81,1.15-2.32,1.15-2.7,0-4-2.18-4-4.52S192.15,91,194.85,91Z"/><path class="cls-1" d="M199.68,88.05a.9.9,0,1,1-.9.9A.9.9,0,0,1,199.68,88.05Zm.73,11.25a.73.73,0,1,1-1.46,0V91.82a.73.73,0,1,1,1.46,0Z"/><path class="cls-1" d="M203.6,96.13a2.51,2.51,0,0,0,2.61,2.69c1.94,0,2.44-1.2,3-1.2a.58.58,0,0,1,.53.65c0,.71-1.81,1.81-3.54,1.81-2.82,0-4.05-2.18-4.05-4.52s1.49-4.52,4-4.52,3.8,2.18,3.8,4.31c0,.51-.18.78-.81.78Zm4.85-1.1a2.49,2.49,0,0,0-2.34-2.73c-1.81-.06-2.46,1.38-2.51,2.73Z"/><path class="cls-1" d="M211.64,91.82a.73.73,0,1,1,1.46,0v.35l0,0a3.11,3.11,0,0,1,5.52,2.2v4.9a.73.73,0,1,1-1.46,0V94.48a2,2,0,1,0-4.09,0V99.3a.73.73,0,1,1-1.46,0Z"/><path class="cls-1" d="M224.51,91c1.5,0,2.38.52,2.38,1.12a.62.62,0,0,1-.6.61c-.57,0-.78-.47-1.78-.47-1.81,0-2.52,1.77-2.52,3.26s.71,3.26,2.52,3.26c1,0,1.3-.5,1.76-.5a.55.55,0,0,1,.57.61c0,.55-.82,1.15-2.33,1.15-2.69,0-4-2.18-4-4.52S221.82,91,224.51,91Z"/><path class="cls-1" d="M229.55,96.13a2.51,2.51,0,0,0,2.6,2.69c1.95,0,2.45-1.2,3-1.2a.58.58,0,0,1,.54.65c0,.71-1.82,1.81-3.54,1.81-2.83,0-4.06-2.18-4.06-4.52s1.5-4.52,4-4.52,3.81,2.18,3.81,4.31c0,.51-.18.78-.82.78ZM234.4,95a2.49,2.49,0,0,0-2.35-2.73c-1.81-.06-2.46,1.38-2.5,2.73Z"/><path class="cls-1" d="M240.39,91c1.22,0,2.94.65,2.94,1.56a.59.59,0,0,1-.66.6c-.63,0-.88-.9-2.28-.9-.83,0-1.54.37-1.54,1.12,0,1.54,4.72,1.38,4.72,3.94,0,1.84-1.58,2.72-3.23,2.72-1.86,0-3.32-.93-3.32-1.68a.62.62,0,0,1,.6-.66c.65,0,1.18,1.08,2.77,1.08,1.07,0,1.71-.6,1.71-1.2,0-1.73-4.72-1.63-4.72-4.09C237.38,91.91,238.91,91,240.39,91Z"/><path class="cls-1" d="M33.5,38.39c0-3.18,2-5.3,4.78-5.3s4.78,2.12,4.78,5.3v13h.13c2-2.46,5.7-3.32,8.69-3.32C59.38,48.08,65,52.86,65,61V79.26c0,3.19-2,5.31-4.78,5.31s-4.77-2.12-4.77-5.31V62.61c0-4.44-2.79-6.57-6.24-6.57-3.92,0-6.1,2.86-6.1,6.57V79.26c0,3.19-2,5.31-4.78,5.31s-4.78-2.12-4.78-5.31Z"/><path class="cls-1" d="M104.56,66.59c0,10-6.83,18.38-17.12,18.38S70.33,76.54,70.33,66.59c0-9.69,7-18.51,17.11-18.51S104.56,56.9,104.56,66.59Zm-24.68,0c0,4.58,2.39,9.62,7.56,9.62s7.57-5,7.57-9.62-2.33-9.75-7.57-9.75S79.88,62,79.88,66.59Z"/><path class="cls-1" d="M107.61,56.84a13.38,13.38,0,0,1-1-4.51c0-2.13,2-3.85,4.77-3.85a4.55,4.55,0,0,1,4.51,3.78l5.51,18.25h.13l5.58-17.85c.73-2.59,2-4.18,4.84-4.18s4.11,1.59,4.84,4.18l5.58,17.85h.13L148,52.26a4.56,4.56,0,0,1,4.52-3.78,4.42,4.42,0,0,1,4.77,4.64,12.86,12.86,0,0,1-.93,3.59l-8.16,23c-1,2.78-2.65,4.84-5.77,4.84-2.92,0-4.64-1.66-5.5-4.44L132,64.73h-.14L127,80.13c-.86,2.78-2.58,4.44-5.5,4.44-3.12,0-4.78-2.06-5.77-4.84Z"/><path class="cls-1" d="M169.52,69.71c.66,4.71,4.57,6.9,9,6.9,4.91,0,8.29-3.85,10.81-3.85a4.25,4.25,0,0,1,3.92,4.11c0,4.12-8.49,8.1-15.59,8.1-10.75,0-17.92-7.83-17.92-18.38,0-9.69,7-18.51,17.12-18.51,10.35,0,17.18,9.42,17.18,17.38,0,2.86-1.26,4.25-4.18,4.25Zm15-6.37c-.53-4.18-3.18-7.3-7.63-7.3-4.25,0-7.1,3.25-7.56,7.3Z"/><path class="cls-1" d="M218.88,59.23c-1.79,0-5.44-2.79-8.56-2.79-1.73,0-3.25.8-3.25,2.65,0,4.45,16.59,3.79,16.59,14.67,0,6.37-5.38,11.21-13.61,11.21-5.37,0-13.33-3-13.33-7.37,0-1.45,1.46-4.24,4.11-4.24,3.72,0,5.38,3.25,9.89,3.25,2.92,0,3.78-.93,3.78-2.72,0-4.38-16.59-3.72-16.59-14.66,0-6.64,5.38-11.15,12.94-11.15,4.71,0,11.94,2.19,11.94,6.9A4.13,4.13,0,0,1,218.88,59.23Z"/><path class="cls-1" d="M232,57.24h-2.13a3.88,3.88,0,0,1-4.18-4.18,4.09,4.09,0,0,1,4.18-4.18H232V43.17c0-3.18,2-5.31,4.77-5.31s4.78,2.13,4.78,5.31v5.71h2.72c2.46,0,4.58,1.12,4.58,4.18s-2.12,4.18-4.58,4.18h-2.72v22c0,3.19-2,5.31-4.78,5.31S232,82.45,232,79.26Z"/><path class="cls-1" d="M138.65,44.05l6.27-19.39a.78.78,0,0,0-.51-1,.81.81,0,0,0-1,.53L137,44.05Z"/><path class="cls-1" d="M118,102.8,113.07,118a.8.8,0,0,0,.51,1,1,1,0,0,0,.24,0,.8.8,0,0,0,.77-.55l5.06-15.68Z"/></svg>